<?xml version="1.0" standalone="no"?>
<!DOCTYPE svg PUBLIC "-//W3C//DTD SVG 20010904//EN"
 "http://www.w3.org/TR/2001/REC-SVG-20010904/DTD/svg10.dtd">
<svg version="1.0" xmlns="http://www.w3.org/2000/svg"
 width="1280.000000pt" height="1280.000000pt" viewBox="0 0 1280.000000 1280.000000"
 preserveAspectRatio="xMidYMid meet">
<g transform="translate(0.000000,1280.000000) scale(0.100000,-0.100000)"
fill="#000000" stroke="none">
<path d="M4585 12789 c-564 -46 -872 -105 -1310 -248 -259 -84 -616 -245 -870
-391 -549 -315 -1052 -762 -1437 -1275 -320 -427 -564 -899 -727 -1405 -134
-419 -193 -750 -232 -1297 -13 -180 -8 -303 27 -653 95 -952 472 -1841 1105
-2605 106 -128 434 -456 564 -564 392 -326 859 -606 1300 -781 951 -378 1971
-447 2955 -200 420 105 862 285 1239 504 l134 78 1966 -1966 c1081 -1081 1971
-1966 1976 -1966 13 0 1505 1492 1505 1505 0 5 -885 895 -1966 1976 l-1966
1966 78 134 c560 964 768 2101 584 3197 -142 845 -502 1624 -1061 2297 -108
130 -436 458 -564 564 -327 271 -603 450 -980 636 -309 152 -510 230 -830 319
-329 92 -598 137 -1030 171 -204 16 -303 17 -460 4z m575 -1599 c352 -49 616
-120 898 -241 876 -375 1544 -1129 1811 -2042 93 -317 125 -550 125 -902 0
-279 -11 -402 -60 -640 -133 -658 -490 -1286 -984 -1730 -501 -451 -1089 -721
-1768 -812 -177 -24 -597 -24 -774 0 -379 51 -686 143 -1023 307 -916 446
-1568 1312 -1744 2314 -39 224 -45 300 -45 561 0 261 6 337 45 561 170 969
789 1816 1664 2275 390 205 802 322 1275 363 80 7 503 -3 580 -14z"/>
</g>
</svg>
